<?xml version="1.0" encoding="UTF-8" standalone="no"?>
<svg
   xmlns:dc="http://purl.org/dc/elements/1.1/"
   xmlns:cc="http://creativecommons.org/ns#"
   xmlns:rdf="http://www.w3.org/1999/02/22-rdf-syntax-ns#"
   xmlns:svg="http://www.w3.org/2000/svg"
   xmlns="http://www.w3.org/2000/svg"
   xmlns:sodipodi="http://sodipodi.sourceforge.net/DTD/sodipodi-0.dtd"
   xmlns:inkscape="http://www.inkscape.org/namespaces/inkscape"
   fill="#000000"
   height="48"
   viewBox="0 0 24 24"
   width="48"
   id="svg2"
   version="1.1"
   inkscape:version="0.91 r13725"
   sodipodi:docname="logo1.svg">
  <metadata
     id="metadata12">
    <rdf:RDF>
      <cc:Work
         rdf:about="">
        <dc:format>image/svg+xml</dc:format>
        <dc:type
           rdf:resource="http://purl.org/dc/dcmitype/StillImage" />
        <dc:title></dc:title>
      </cc:Work>
    </rdf:RDF>
  </metadata>
  <defs
     id="defs10">
    <pattern
       y="0"
       x="0"
       height="6"
       width="6"
       patternUnits="userSpaceOnUse"
       id="EMFhbasepattern" />
  </defs>
  <sodipodi:namedview
     pagecolor="#ffffff"
     bordercolor="#666666"
     borderopacity="1"
     objecttolerance="10"
     gridtolerance="10"
     guidetolerance="10"
     inkscape:pageopacity="0"
     inkscape:pageshadow="2"
     inkscape:window-width="1366"
     inkscape:window-height="705"
     id="namedview8"
     showgrid="false"
     inkscape:zoom="9.8333333"
     inkscape:cx="22.042215"
     inkscape:cy="28.974312"
     inkscape:window-x="-8"
     inkscape:window-y="-8"
     inkscape:window-maximized="1"
     inkscape:current-layer="layer1" />
  <path
     d="M0 0h24v24H0z"
     fill="none"
     id="path4" />
  <path
     inkscape:connector-curvature="0"
     id="path4165"
     d="M 17.328096,8.5670446 14.77016,9.3865382 13.889835,13.825874 10.865682,11.778717 9.8976053,15.113541 c 0,0 -2.1581071,-0.808297 -2.1294772,-0.716948 -0.2407019,0.809424 -0.7077246,3.038484 -0.7077246,3.038484 l -0.5266395,0.0088 0.7528386,-3.666947 2.0073903,0.214008 0.8530341,-3.789205 2.83857,1.677477 0.559674,-3.5348874 2.442624,-2.4125673 1.950389,0.7538839 z"
     style="fill:#000000;fill-opacity:1;fill-rule:nonzero;stroke:none"
     sodipodi:nodetypes="cccccccccccccccc" />
  <g
     inkscape:groupmode="layer"
     id="layer1"
     inkscape:label="gear-top"
     style="display:inline">
    <path
       d="m 5.3027002,19.289805 0.8466147,0.60091 2.920314,1.878354 c 0.2102615,0.135241 0.4906533,0.05709 0.629841,-0.140714 l 1.5799061,-2.161203 c 0.655957,0.06573 1.310033,0.02852 1.952273,-0.07162 l 1.728796,2.05216 c 0.160801,0.187465 0.432614,0.230098 0.64187,0.09221 l 3.390546,-2.115607 c 0.209256,-0.137884 0.291901,-0.399743 0.194591,-0.621397 l -1.088068,-2.447592 c 0.185584,-0.263739 0.362338,-0.532175 0.521999,-0.832356 0.15966,-0.300181 0.283441,-0.596792 0.398394,-0.898099 l 2.637709,-0.46593 c 0.238187,-0.04321 0.40912,-0.258111 0.406483,-0.508696 L 21.922974,9.6562645 C 21.920337,9.4056791 21.719525,9.2082594 21.487723,9.1755808 L 18.81975,8.8891913 17.97719,7.0393049 17.366102,8.6872617 14.73359,9.3969042 13.983494,13.811613 10.903167,11.882473 9.9297882,14.965331 7.7763046,14.485614 Z M 17.914989,6.4168 18.696782,4.7122691 C 18.782997,4.486289 18.682117,4.228756 18.461396,4.1113589 L 14.929854,2.2330056 C 14.709132,2.1156085 14.4392,2.1759144 14.300013,2.3737192 l -1.579906,2.161203 C 12.06415,4.4691947 11.410074,4.5064063 10.767834,4.6065457 L 9.0390375,2.5543852 C 8.8782368,2.3669202 8.6064237,2.324287 8.397168,2.4621712 L 5.0066213,4.5777783 C 4.7885368,4.7109666 4.7147211,4.977521 4.8120311,5.1991756 L 5.9000987,7.6467681 C 5.714515,7.9105079 5.5330643,8.1877725 5.3781001,8.4791247 5.223136,8.7704769 5.0946584,9.0759167 4.9797055,9.3772236 L 2.3419964,9.8431533 C 2.1038099,9.8863643 1.9328768,10.101264 1.9355136,10.351849 l 0.1409953,3.993961 c 0.00884,0.250443 0.2034489,0.448005 0.4352508,0.480684 l 2.6679732,0.286389 c 0.2712651,0.59734 0.6107168,1.151662 1.0318799,1.658832 M 10.356182,15.091136 C 8.6522131,14.184831 8.0033366,12.061447 8.9096421,10.357478 9.8159476,8.653509 11.939332,8.0046325 13.643301,8.910938 c 1.703969,0.9063055 2.352845,3.029689 1.44654,4.733658 -0.906306,1.703969 -3.02969,2.352846 -4.733659,1.44654 z"
       id="path6"
       inkscape:connector-curvature="0"
       sodipodi:nodetypes="ccsccccccccsccccccccccccccccssccccccccscccscccsssss"
       style="fill:none;stroke:#000000;stroke-width:0.29999998;stroke-miterlimit:4;stroke-dasharray:none;stroke-opacity:1" />
  </g>
</svg>
